<?xml version="1.0" encoding="UTF-8"?>
<svg version="1.1" xmlns="http://www.w3.org/2000/svg" width="500" height="500">
<path d="M0 0 C4.56387503 2.31658732 7.15648948 5.66021207 8.92578125 10.3515625 C9.48035826 14.06789234 9.44907351 17.72972327 9.40679932 21.48155212 C9.41021702 22.59417579 9.41363472 23.70679945 9.41715598 24.85313898 C9.42373809 28.57675355 9.40175207 32.29964533 9.37988281 36.02319336 C9.37875441 38.69415916 9.37921197 41.36508085 9.38165283 44.03604126 C9.38374742 49.7840261 9.3712271 55.53182893 9.34870148 61.27976799 C9.31615482 69.59022967 9.30577175 77.9006036 9.30074951 86.2111221 C9.29200103 99.69524128 9.2653976 113.17926352 9.22753906 126.66333008 C9.19080739 139.75967932 9.1625013 152.8560022 9.14550781 165.95239258 C9.14445692 166.76002932 9.14340602 167.56766605 9.14232329 168.39977663 C9.13710303 172.45156533 9.13204822 176.50335422 9.12707567 180.55514324 C9.08562755 214.15401995 9.01519132 247.75277933 8.92578125 281.3515625 C9.76603857 281.35004362 10.60629589 281.34852474 11.47201556 281.34695983 C61.24099118 281.2575029 111.00995829 281.1888443 160.77899818 281.14730118 C166.75102171 281.14229818 172.72304507 281.13712091 178.69506836 281.13183594 C180.47849805 281.13026207 180.47849805 281.13026207 182.29795662 281.12865642 C201.56485292 281.11123765 220.83170162 281.07969187 240.09856965 281.04295132 C259.85911767 281.00558283 279.61964071 280.98333532 299.38022262 280.97520852 C311.57960185 280.96971225 323.77884655 280.95233507 335.97818438 280.91989663 C344.33675505 280.89879925 352.69525589 280.89235161 361.05385127 280.89755699 C365.88077319 280.90012622 370.70745956 280.89610925 375.5343399 280.8747406 C379.95045306 280.8553326 384.36617136 280.85425487 388.78230236 280.86796692 C390.38265783 280.86966262 391.98303754 280.86453968 393.58334502 280.85202977 C395.75432614 280.83604111 397.9238708 280.84458711 400.09482861 280.85937119 C401.30195954 280.8578523 402.50909047 280.85633342 403.75280112 280.85476851 C407.56872957 281.45222902 409.18372151 282.68583013 411.92578125 285.3515625 C415.32045147 290.03386626 415.54692555 294.74498252 415.4140625 300.3671875 C414.64784587 305.05030354 412.42986549 308.21717522 408.92578125 311.3515625 C405.31564072 313.68456624 402.17776563 313.60409918 397.94069958 313.60883141 C396.88084453 313.61409052 396.88084453 313.61409052 395.79957828 313.61945587 C393.4199527 313.62879727 391.04057039 313.62383956 388.66093445 313.61898804 C386.94242729 313.62272292 385.22392183 313.62732379 383.50541908 313.63271868 C378.7734951 313.64498414 374.04164163 313.64468405 369.30970538 313.64232993 C364.21006017 313.64192266 359.11043784 313.65295235 354.01080322 313.66244507 C344.01597536 313.67907553 334.02117109 313.68455554 324.02633055 313.68566982 C315.90386531 313.68661934 307.78140786 313.69072481 299.65894508 313.69707108 C276.64228402 313.71468916 253.62564162 313.72390907 230.60897376 313.72241013 C229.36749729 313.72233022 228.12602081 313.7222503 226.84692383 313.72216797 C225.60393565 313.72208621 224.36094747 313.72200445 223.08029298 313.72192021 C202.93231442 313.72110717 182.78441059 313.7402478 162.63645365 313.7684447 C141.96045098 313.79715282 121.28448479 313.81098614 100.60846168 313.80925715 C88.99571917 313.80859253 77.38305501 313.81411648 65.77033043 313.83561325 C55.88333054 313.8537978 45.99644451 313.85819484 36.10943516 313.8445944 C31.0635215 313.83805094 26.01782642 313.83799719 20.97193336 313.8553009 C16.35355364 313.87097587 11.73556683 313.86822524 7.11719701 313.85073264 C5.44559975 313.84765041 3.77397357 313.85134096 2.1024104 313.86245279 C-0.1694072 313.87655575 -2.43984308 313.86600354 -4.71161366 313.84934044 C-5.97353434 313.84977517 -7.23545503 313.85020991 -8.53561574 313.85065782 C-14.17435565 313.05535281 -17.87245115 310.8537115 -21.47997284 306.344491 C-23.97377526 301.31725125 -23.62624046 295.95738416 -23.58215332 290.46470642 C-23.59151326 288.67348912 -23.59151326 288.67348912 -23.6010623 286.84608561 C-23.6142302 283.54390197 -23.60952788 280.24263201 -23.59711742 276.94050443 C-23.58805322 273.37466735 -23.60204335 269.8089091 -23.61303711 266.24308777 C-23.63081183 259.26290455 -23.62698723 252.28289349 -23.61538655 245.30270355 C-23.60634908 239.62975699 -23.60512957 233.95685864 -23.60948181 228.28390694 C-23.61009474 227.47618222 -23.61070768 226.66845751 -23.61133918 225.83625628 C-23.61261809 224.1953374 -23.61391495 222.55441852 -23.61522955 220.91349966 C-23.62663209 205.53154296 -23.6135264 190.14968167 -23.59202808 174.76774061 C-23.57415399 161.57029169 -23.57726438 148.3729835 -23.59570312 135.17553711 C-23.61710976 119.84667585 -23.62553705 104.51789815 -23.61325407 89.18902403 C-23.61197988 87.55448347 -23.6107224 85.91994289 -23.60948181 84.2854023 C-23.60886471 83.48119129 -23.60824761 82.67698028 -23.60761181 81.84839923 C-23.60415853 76.18197757 -23.60998668 70.51560893 -23.61940002 64.84919548 C-23.63061895 57.94419586 -23.62758216 51.03937813 -23.60627705 44.13439935 C-23.59576558 40.61156703 -23.59164616 37.08903795 -23.60487366 33.56620789 C-23.61899426 29.7477788 -23.6021324 25.92984613 -23.58215332 22.11143494 C-23.59107621 20.99752992 -23.59999909 19.88362491 -23.60919237 18.73596519 C-23.54691535 12.61762916 -23.18407513 8.99574161 -19.07421875 4.3515625 C-13.25940448 -0.77101198 -7.6404904 -2.38855256 0 0 Z " fill="#000000" transform="translate(54.07421875,93.6484375)"/>
<path d="M0 0 C4.66604741 2.65038355 6.62955635 5.03258057 8.6875 10.08203125 C9.11234658 13.20787603 9.09697754 16.29926909 9.07518005 19.45018005 C9.08056559 20.38550113 9.08595113 21.32082221 9.09149987 22.28448635 C9.10579177 25.41431993 9.09867257 28.54373131 9.09155273 31.67358398 C9.09725564 33.91924378 9.10421958 36.16490067 9.11235046 38.41055298 C9.13030549 44.50762242 9.12910906 50.60454813 9.12340808 56.70163608 C9.12031971 61.79124015 9.12640476 66.88081648 9.13244683 71.97041661 C9.1473015 84.66330084 9.14367205 97.35608334 9.13158352 110.04896135 C9.12165124 121.0661099 9.13459231 132.08309051 9.15851771 143.10021316 C9.18291426 154.41979328 9.1921156 165.73927305 9.18586498 177.05888706 C9.18249222 183.41112612 9.18493193 189.76322641 9.20211601 196.11544609 C9.21756878 202.08844438 9.2136478 208.06112168 9.19481087 214.03410721 C9.19112044 216.22586187 9.19424659 218.41764023 9.20469666 220.60937309 C9.21787678 223.60225274 9.20638488 226.5940651 9.18870544 229.5868988 C9.20311295 230.88671563 9.20311295 230.88671563 9.21781152 232.21279138 C9.14773816 237.98139002 8.03628106 241.34837118 4.6875 246.08203125 C-0.08264043 249.80274078 -3.84898215 250.7452061 -9.8828125 250.4609375 C-13.94820943 249.82694473 -16.0329526 248.64007822 -19.3125 246.08203125 C-23.2802894 240.47663483 -23.88981628 236.31718212 -23.82043457 229.54893494 C-23.82667453 228.60797031 -23.8329145 227.66700569 -23.83934355 226.69752699 C-23.85525791 223.55452307 -23.84267515 220.41229635 -23.83007812 217.26928711 C-23.83549988 215.01200407 -23.84262284 212.75472458 -23.85131836 210.49745178 C-23.86954704 204.37360347 -23.86248614 198.25002483 -23.84980202 192.12617183 C-23.83967335 185.71745373 -23.84906722 179.30875868 -23.85534668 172.90003967 C-23.86308894 161.44974833 -23.85066151 149.99960634 -23.83030933 138.54934026 C-23.81243478 128.17174879 -23.81554701 117.79433629 -23.83398438 107.41674805 C-23.85539931 95.35761215 -23.86335415 83.29861139 -23.85153532 71.23944956 C-23.84529783 64.85876166 -23.84447203 58.478197 -23.85768127 52.09751701 C-23.86923045 46.09987163 -23.86123066 40.10256449 -23.83810425 34.10495567 C-23.83281247 31.90310986 -23.8343389 29.70123561 -23.84315491 27.49940109 C-23.85407493 24.49526361 -23.84038899 21.49221209 -23.82043457 18.48814392 C-23.82935746 17.6154777 -23.83828034 16.74281148 -23.84747362 15.84370083 C-23.77788887 10.44815603 -22.91825422 7.34939871 -19.3125 3.08203125 C-13.41227265 -1.40214154 -7.08985578 -2.81438532 0 0 Z " fill="#020202" transform="translate(429.3125,93.91796875)"/>
<path d="M0 0 C5.87824292 3.81898585 5.87824292 3.81898585 7.328125 6.71875 C7.43342894 8.94750536 7.47208967 11.17948602 7.48202515 13.41070557 C7.48859853 14.45434993 7.48859853 14.45434993 7.4953047 15.51907802 C7.50871195 17.86200522 7.51487587 20.20489479 7.52099609 22.54785156 C7.52889557 24.22312084 7.53716442 25.89838841 7.54577637 27.57365417 C7.57201513 33.08554454 7.58730618 38.59744258 7.6015625 44.109375 C7.60692148 46.00558223 7.61229899 47.9017894 7.61769485 49.79799652 C7.6393266 57.6850023 7.65806374 65.57200602 7.66931725 73.45903397 C7.68555876 84.76822478 7.71873803 96.07707212 7.77571809 107.38613343 C7.81440161 115.33439716 7.83394807 123.28256896 7.83923781 131.23092437 C7.84289355 135.97977136 7.85493826 140.72825217 7.88734055 145.47699738 C7.91739317 149.94551579 7.92374316 154.41344595 7.91195679 158.88204384 C7.91173581 160.52113092 7.92006068 162.16024507 7.93761063 163.7992382 C7.96029407 166.03981985 7.95201408 168.27826682 7.93612671 170.51885986 C7.93943686 171.77174427 7.942747 173.02462868 7.94615746 174.31547928 C6.99779297 179.53776342 4.15252798 182.10898267 0.203125 185.59375 C-4.38493742 187.38907877 -8.81728558 187.36126919 -13.671875 186.71875 C-18.67417698 184.26307448 -22.17039035 180.7217193 -24.671875 175.71875 C-24.7749094 173.54060033 -24.81141954 171.35922182 -24.81904602 169.1786499 C-24.82272271 168.4992212 -24.8263994 167.8197925 -24.8301875 167.11977506 C-24.84124296 164.83212113 -24.84507132 162.5445126 -24.84887695 160.25683594 C-24.85514023 158.62097529 -24.86178691 156.98511607 -24.86878967 155.34925842 C-24.88621265 150.89664161 -24.89675509 146.44403555 -24.9049952 141.99139309 C-24.9101429 139.21033732 -24.91621875 136.42928491 -24.92250633 133.64823151 C-24.94156254 124.94934384 -24.95579243 116.25046469 -24.9641183 107.55156016 C-24.97389154 97.50585074 -25.00021149 87.46036162 -25.04061919 77.41472983 C-25.07076879 69.65329924 -25.0855861 61.89193183 -25.08889931 54.13044381 C-25.09125124 49.49343619 -25.10022997 44.8566638 -25.12536049 40.21971893 C-25.14862589 35.85631461 -25.1528807 31.49330064 -25.14259911 27.12985039 C-25.14210325 25.52947377 -25.14843841 23.92907805 -25.16215515 22.32876015 C-25.179856 20.14096753 -25.17277848 17.95457853 -25.15962219 15.76678467 C-25.16201055 14.54339764 -25.1643989 13.3200106 -25.16685963 12.05955124 C-24.36632027 6.65646857 -21.8511956 3.63332516 -17.609375 0.34375 C-12.00407024 -2.48890937 -5.66595382 -2.7170071 0 0 Z " fill="#010101" transform="translate(242.671875,157.28125)"/>
<path d="M0 0 C4.73246902 2.52131542 7.23886734 5.22050827 8.91015625 10.234375 C9.0065963 11.65258046 9.04928227 13.07481891 9.05732727 14.49627686 C9.06448257 15.36535675 9.07163788 16.23443665 9.07901001 17.12985229 C9.08169891 18.08054596 9.08438782 19.03123962 9.0871582 20.01074219 C9.097015 21.51609024 9.097015 21.51609024 9.10707092 23.05184937 C9.1268073 26.37831698 9.13846732 29.70473945 9.1484375 33.03125 C9.15251303 34.16714821 9.15658855 35.30304642 9.16078758 36.47336578 C9.18164976 42.48549722 9.19595087 48.49760582 9.20532227 54.50976562 C9.21638697 60.71838653 9.25078757 66.92664906 9.29049397 73.13514328 C9.31664351 77.91014267 9.32501265 82.68505646 9.32860374 87.46012115 C9.33347396 89.74863353 9.34510025 92.03714197 9.36364174 94.32558441 C9.38799703 97.53082145 9.38707438 100.73512838 9.38012695 103.94042969 C9.39293701 104.88302643 9.40574707 105.82562317 9.41894531 106.79678345 C9.37158896 112.80077276 8.4402508 116.33028739 4.91015625 121.234375 C0.14001582 124.95508453 -3.6263259 125.89754985 -9.66015625 125.61328125 C-13.72555318 124.97928848 -15.81029635 123.79242197 -19.08984375 121.234375 C-23.23360516 115.46224796 -23.6678919 110.9965426 -23.60742188 104.00390625 C-23.61443115 102.99975677 -23.62144043 101.9956073 -23.62866211 100.96102905 C-23.64620516 97.65602614 -23.63463195 94.35188597 -23.62109375 91.046875 C-23.62378971 88.74194169 -23.627673 86.4370095 -23.63269043 84.13208008 C-23.6385805 79.3070185 -23.63003799 74.4822536 -23.61132812 69.65722656 C-23.5885393 63.48003014 -23.60166495 57.30352896 -23.62561798 51.12635803 C-23.64008897 46.36847722 -23.6354639 41.61076057 -23.62510681 36.85287476 C-23.62244314 34.57555051 -23.62569657 32.29821124 -23.63502502 30.02090454 C-23.64521163 26.83515074 -23.62965885 23.65051456 -23.60742188 20.46484375 C-23.61956726 19.06037491 -23.61956726 19.06037491 -23.63195801 17.62753296 C-23.55488264 11.65123308 -22.59697415 8.11969543 -19.08984375 3.234375 C-13.37118559 -1.22617836 -6.98548068 -2.55916675 0 0 Z " fill="#010101" transform="translate(335.08984375,218.765625)"/>
<path d="M0 0 C4.6828776 2.52078305 7.17902199 5.26753473 8.8359375 10.23828125 C8.94050331 11.57183418 8.99422605 12.90979913 9.01293945 14.24731445 C9.03219231 15.44920158 9.03219231 15.44920158 9.05183411 16.67536926 C9.05922104 17.53788803 9.06660797 18.4004068 9.07421875 19.2890625 C9.0822905 20.18062546 9.09036224 21.07218842 9.09867859 21.99076843 C9.11250656 23.87785911 9.12323447 25.76497467 9.13110352 27.65209961 C9.14831095 30.52961925 9.19220738 33.40598806 9.23632812 36.28320312 C9.24645605 38.11848115 9.25497184 39.95376893 9.26171875 41.7890625 C9.27922684 42.64550858 9.29673492 43.50195465 9.31477356 44.38435364 C9.29509345 49.83797872 8.45464511 52.90651556 4.8359375 57.23828125 C-0.19124225 61.77500444 -4.05542048 62.59644229 -10.66015625 62.51953125 C-15.36955053 61.99055092 -17.9673133 59.36049956 -21.29272461 56.2421875 C-24.02864985 51.85042962 -23.75658643 47.94320956 -23.73046875 42.86328125 C-23.73666733 41.86119629 -23.74286591 40.85911133 -23.74925232 39.82666016 C-23.75634357 37.71192393 -23.75318866 35.5971318 -23.74047852 33.48242188 C-23.72660828 30.24895468 -23.76070049 27.01837935 -23.79882812 23.78515625 C-23.79977931 21.72786388 -23.79792051 19.67056788 -23.79296875 17.61328125 C-23.80622696 16.6485791 -23.81948517 15.68387695 -23.83314514 14.68994141 C-23.76874231 10.04238078 -23.72270428 7.94286019 -20.75756836 4.203125 C-19.90171143 3.55472656 -19.04585449 2.90632813 -18.1640625 2.23828125 C-17.4628125 1.64015625 -16.7615625 1.04203125 -16.0390625 0.42578125 C-10.9656596 -1.66975473 -5.20947824 -1.83366111 0 0 Z " fill="#020202" transform="translate(148.1640625,281.76171875)"/>
</svg>
