<?xml version="1.0" encoding="UTF-8"?>
<svg version="1.1" xmlns="http://www.w3.org/2000/svg" width="500" height="500">
<path d="M0 0 C0.94270752 -0.00700928 1.88541504 -0.01401855 2.85668945 -0.02124023 C5.94643356 -0.03872271 9.03524797 -0.02723202 12.125 -0.01367188 C14.28776219 -0.01636958 16.45052319 -0.02025432 18.61328125 -0.02526855 C23.13553468 -0.03115042 27.65747106 -0.02264278 32.1796875 -0.00390625 C37.9598108 0.01888218 43.73919103 0.0057521 49.51928711 -0.01819611 C53.98215272 -0.03268942 58.44484381 -0.02803185 62.90771484 -0.01768494 C65.03824961 -0.01502743 67.1688005 -0.01825285 69.29931641 -0.02760315 C72.2833011 -0.03782691 75.26610282 -0.02218606 78.25 0 C79.11987549 -0.00809692 79.98975098 -0.01619385 80.88598633 -0.02453613 C90.22920114 0.10336551 98.38739539 4.09203099 105.125 10.51757812 C110.29863736 16.90719233 113.36463276 23.10259655 113.39242554 31.4487915 C113.40522049 33.1938372 113.40522049 33.1938372 113.41827393 34.97413635 C113.41691437 36.86784218 113.41691437 36.86784218 113.41552734 38.79980469 C113.42151723 40.15390898 113.42832383 41.50800988 113.43588257 42.86210632 C113.45350544 46.52967925 113.45823644 50.19715876 113.45951414 53.86476994 C113.46093868 56.16010819 113.46521406 58.45542292 113.47050858 60.75075531 C113.48899828 68.76988728 113.49718073 76.78895289 113.49560547 84.80810547 C113.49440514 92.26420949 113.51548878 99.72002355 113.5470928 107.17605424 C113.5733135 113.59242804 113.58397031 120.0087075 113.58269465 126.42513442 C113.58218661 130.25067204 113.58778134 134.07595195 113.60905075 137.90143585 C113.62853071 141.50327169 113.62849194 145.10460661 113.61401749 148.70646095 C113.61095645 150.64396744 113.62753835 152.5814745 113.64489746 154.51890564 C113.56677601 165.45764383 110.97696117 173.52429377 103.41796875 181.53710938 C96.16071395 187.80530049 88.42000558 189.66505495 79.07055664 189.71044922 C78.14329773 189.71862671 77.21603882 189.7268042 76.26068115 189.73522949 C73.18551271 189.76008004 70.11039062 189.77660405 67.03515625 189.79101562 C65.98272673 189.7963393 64.9302972 189.80166298 63.84597588 189.80714798 C58.26898807 189.83388572 52.69202264 189.85325346 47.11499023 189.86767578 C42.51257307 189.88098272 37.91060265 189.90877483 33.30834961 189.94970703 C27.74162417 189.99921443 22.17530218 190.02381994 16.60836601 190.03090286 C14.49422237 190.0375878 12.38008675 190.05273727 10.26606941 190.07679367 C-3.34250529 190.22274133 -14.74198798 190.3345453 -25.375 180.70507812 C-34.27811437 170.84146179 -35.17713849 159.65649729 -35.1496582 146.84448242 C-35.15476913 145.60423309 -35.15988007 144.36398376 -35.16514587 143.08615112 C-35.17660847 139.70780542 -35.17912434 136.32970627 -35.17658257 132.95135856 C-35.1755066 130.11875487 -35.18041228 127.28617337 -35.185188 124.45357448 C-35.19625332 117.76338472 -35.19673776 111.07325111 -35.19067383 104.38305664 C-35.18463964 97.51034516 -35.1969377 90.63783869 -35.2182439 83.76516217 C-35.23593252 77.83871439 -35.24184978 71.91233143 -35.23860615 65.98585826 C-35.23680427 62.45769054 -35.23931852 58.92966901 -35.25332069 55.4015255 C-35.26837818 51.46055622 -35.25886575 47.51984244 -35.24731445 43.57885742 C-35.25878006 41.85541359 -35.25878006 41.85541359 -35.27047729 40.09715271 C-35.18992101 27.59143985 -33.0422678 17.90828593 -24.24609375 8.83789062 C-17.13438077 2.20469198 -9.56906113 -0.08907017 0 0 Z M-9.36672974 25.86654663 C-11.51311101 29.63916251 -12.00173261 32.39181125 -12.01544189 36.65937805 C-12.02115204 37.72342865 -12.02686218 38.78747925 -12.03274536 39.8837738 C-12.03386322 41.0511055 -12.03498108 42.21843719 -12.03613281 43.42114258 C-12.04109772 44.65064636 -12.04606262 45.88015015 -12.05117798 47.14691162 C-12.06328796 50.52101205 -12.07074517 53.89505049 -12.07518864 57.26916528 C-12.07812104 59.37801076 -12.08222618 61.48685083 -12.08669281 63.59569359 C-12.10036566 70.19621197 -12.1100332 76.79671795 -12.1138947 83.39724952 C-12.11837424 91.01201583 -12.13591805 98.62660253 -12.1648953 106.24131423 C-12.18652561 112.13017084 -12.19659971 118.01897696 -12.19793582 123.90787286 C-12.19898294 127.42365595 -12.20487075 130.93927016 -12.22275543 134.45501137 C-12.24232701 138.3786763 -12.23794174 142.30211752 -12.23144531 146.22583008 C-12.2406601 147.38708908 -12.24987488 148.54834808 -12.2593689 149.74479675 C-12.23243532 157.56025194 -12.23243532 157.56025194 -8.875 164.51757812 C-4.99112338 167.1068292 -1.74909842 166.80562014 2.75561523 166.79223633 C4.07799698 166.79990273 4.07799698 166.79990273 5.42709351 166.807724 C8.34599567 166.82164248 11.26466231 166.82066154 14.18359375 166.81835938 C16.20996692 166.82224506 18.23633928 166.82657946 20.26271057 166.8313446 C24.51216267 166.83881166 28.76153169 166.838512 33.01098633 166.83325195 C38.45983323 166.82745661 43.9083403 166.84438763 49.357131 166.86759663 C53.54268893 166.88231983 57.72816474 166.88320759 61.91374397 166.8800869 C63.92281836 166.88060082 65.93189725 166.88585178 67.94094658 166.89589882 C70.74918654 166.9082185 73.55676113 166.90149842 76.36499023 166.88989258 C77.1968132 166.89753632 78.02863617 166.90518005 78.88566589 166.91305542 C82.19646892 166.88277183 84.66358933 166.76560155 87.61000061 165.18180847 C90.37360221 162.14598569 90.25328783 159.1264623 90.26544189 155.2171936 C90.27115204 154.11804123 90.27686218 153.01888885 90.28274536 151.88642883 C90.28386322 150.68012314 90.28498108 149.47381744 90.28613281 148.23095703 C90.29109772 146.96083267 90.29606262 145.69070831 90.30117798 144.38209534 C90.3142933 140.89651176 90.32074512 137.41094743 90.32518864 133.92534304 C90.32812049 131.74749143 90.33222549 129.56964507 90.33669281 127.39179611 C90.35036485 120.57717146 90.3600332 113.76255882 90.3638947 106.9479214 C90.36837625 99.08241537 90.38592976 91.21708306 90.4148953 83.35162985 C90.43651104 77.27085852 90.44659891 71.19013607 90.44793582 65.10932672 C90.44898384 61.47788271 90.45489097 57.84660206 90.47275543 54.21519852 C90.49229599 50.16435448 90.48794761 46.11387421 90.48144531 42.06298828 C90.4906601 40.86073105 90.49987488 39.65847382 90.5093689 38.41978455 C90.50379974 37.31499252 90.49823059 36.2102005 90.49249268 35.07192993 C90.49395924 34.11439631 90.4954258 33.15686268 90.4969368 32.17031288 C90.05141141 28.99272815 88.99501913 27.10351478 87.125 24.51757812 C83.82438065 22.86726845 80.14580161 23.34296684 76.51611328 23.32470703 C75.62491791 23.31652954 74.73372253 23.30835205 73.81552124 23.29992676 C70.85879189 23.27506135 67.90211052 23.25855538 64.9453125 23.24414062 C63.93714352 23.23881695 62.92897453 23.23349327 61.89025497 23.22800827 C56.55591339 23.20127395 51.22159525 23.18189841 45.88720703 23.16748047 C40.3698086 23.15081589 34.85300556 23.10602364 29.3358326 23.05510902 C25.09967336 23.02150391 20.86365674 23.00991053 16.62737656 23.00425339 C14.59314285 22.99752415 12.55891908 22.98225893 10.52481461 22.95836258 C7.68026976 22.92684739 4.83734836 22.92665343 1.99267578 22.93408203 C1.14993103 22.9176767 0.30718628 22.90127136 -0.56109619 22.8843689 C-5.47669522 22.93396283 -5.47669522 22.93396283 -9.36672974 25.86654663 Z " fill="#181818" transform="translate(293.875,217.482421875)"/>
<path d="M0 0 C1.40617584 -0.01489471 1.40617584 -0.01489471 2.84075928 -0.03009033 C5.93211851 -0.05921982 9.02327234 -0.07291995 12.11474609 -0.08398438 C14.27460735 -0.09549881 16.43446859 -0.10701412 18.59432983 -0.11853027 C23.12181546 -0.13951941 27.64923041 -0.15122416 32.17675781 -0.15820312 C37.95346665 -0.16915154 43.72922766 -0.21717238 49.50564003 -0.27414703 C53.968604 -0.31156301 58.43134364 -0.32181967 62.89445114 -0.32487488 C65.02255801 -0.33089482 67.1506625 -0.3468392 69.27861404 -0.37324524 C83.32255932 -0.53504508 93.57085429 -0.04865576 104.51318359 9.69726562 C113.11707347 19.24318724 113.81425447 30.6810966 113.7878418 42.99536133 C113.79295273 44.23561066 113.79806366 45.47585999 113.80332947 46.75369263 C113.81479206 50.13203833 113.81730794 53.51013748 113.81476617 56.88848519 C113.81369019 59.72108888 113.81859587 62.55367038 113.82337159 65.38626927 C113.83443692 72.07645903 113.83492135 78.76659264 113.82885742 85.45678711 C113.82282323 92.32949859 113.83512129 99.20200506 113.85642749 106.07468158 C113.87411612 112.00112936 113.88003337 117.92751232 113.87678975 123.85398549 C113.87498787 127.38215321 113.87750211 130.91017474 113.89150429 134.43831825 C113.90656177 138.37928753 113.89704935 142.32000131 113.88549805 146.26098633 C113.89314178 147.40994888 113.90078552 148.55891144 113.90866089 149.74269104 C113.83689427 160.88387893 112.40697795 171.0188876 104.51318359 179.32226562 C103.98724609 179.8765625 103.46130859 180.43085938 102.91943359 181.00195312 C95.77299187 187.77758891 87.25146756 189.9308997 77.63232422 189.83984375 C76.70083054 189.84685303 75.76933685 189.8538623 74.80961609 189.86108398 C71.76257584 189.87853843 68.71648155 189.86708594 65.66943359 189.85351562 C63.5329165 189.85621414 61.39640061 189.86009955 59.2598877 189.8651123 C54.79488362 189.87099038 50.33020092 189.86249888 45.86523438 189.84375 C40.16258407 189.82096178 34.46068699 189.83409392 28.75806427 189.85803986 C24.35006102 189.87254351 19.94223423 189.8678709 15.53422546 189.85752869 C13.43242807 189.85487402 11.33061428 189.85808643 9.22883606 189.8674469 C6.28347774 189.87768791 3.33931314 189.86200624 0.39404297 189.83984375 C-0.46131546 189.84794067 -1.31667389 189.8560376 -2.19795227 189.86437988 C-11.81092469 189.73141627 -19.56089735 186.16731404 -26.50634766 179.61523438 C-31.64385577 173.66707409 -34.60085363 166.57711938 -34.63398743 158.7518158 C-34.64114273 157.59257599 -34.64829803 156.43333618 -34.65567017 155.2389679 C-34.65835907 153.96571152 -34.66104797 152.69245514 -34.66381836 151.38061523 C-34.67008461 150.02695542 -34.67673156 148.67329733 -34.68373108 147.31964111 C-34.70476309 142.87130936 -34.71513594 138.42297731 -34.72509766 133.97460938 C-34.7291462 132.44097946 -34.73326316 130.90734972 -34.73744774 129.37372017 C-34.7565013 122.16450963 -34.77072929 114.95530931 -34.77905971 107.74607843 C-34.78881868 99.43854354 -34.81510223 91.13127605 -34.8555606 82.82383531 C-34.88579011 76.39479477 -34.90053523 69.96583054 -34.90384072 63.53672034 C-34.90618437 59.70106073 -34.91505414 55.86568671 -34.9403019 52.03010368 C-34.96370634 48.41601853 -34.96776683 44.80240444 -34.95754051 41.18826294 C-34.95681468 39.24355514 -34.97582086 37.2988706 -34.99560547 35.35426331 C-34.93396114 24.88778066 -32.67488785 16.77388846 -25.41259766 9.07617188 C-17.81395938 2.15570821 -10.08713048 0.02574579 0 0 Z M-8.97854614 25.22763062 C-11.38161476 28.56493148 -11.61339913 30.42896316 -11.62052917 34.50912476 C-11.62479416 35.60834763 -11.62905914 36.7075705 -11.63345337 37.84010315 C-11.63300018 39.05157516 -11.632547 40.26304718 -11.63208008 41.51123047 C-11.63543869 42.78281509 -11.6387973 44.05439972 -11.64225769 45.36451721 C-11.65110783 48.85836237 -11.65343625 52.35218306 -11.65407348 55.84603834 C-11.65502199 58.76105434 -11.65869968 61.67606461 -11.66224557 64.5910784 C-11.67039422 71.46827396 -11.67282946 78.34545642 -11.67211914 85.22265625 C-11.67151844 92.31970732 -11.68206781 99.41668236 -11.6978628 106.51371419 C-11.71093437 112.6037915 -11.71630319 118.69384396 -11.71566373 124.78393519 C-11.7154086 128.42258729 -11.71826789 132.06117188 -11.72884178 135.69981003 C-11.74031263 139.75809686 -11.7357783 143.81621319 -11.72973633 147.87451172 C-11.73535583 149.08193527 -11.74097534 150.28935883 -11.74676514 151.53337097 C-11.74257065 152.63823349 -11.73837616 153.74309601 -11.73405457 154.88143921 C-11.73459933 155.84119345 -11.7351441 156.80094769 -11.73570538 157.78978539 C-11.47041848 160.48911687 -10.97026728 162.06307141 -9.48681641 164.32226562 C-5.61060202 166.90640855 -2.36945599 166.6250704 2.12792969 166.62866211 C3.44790199 166.64114738 3.44790199 166.64114738 4.79454041 166.65388489 C7.70861208 166.67801464 10.62246006 166.68676056 13.53662109 166.69335938 C15.56059843 166.70232332 17.58457508 166.71144512 19.60855103 166.72071838 C23.85379651 166.73721894 28.09896302 166.74491046 32.34423828 166.74780273 C37.7842038 166.75318813 43.22342731 166.79087034 48.66318321 166.8365469 C52.84449982 166.86628836 57.02563712 166.87352566 61.20705032 166.87452888 C63.21253483 166.87873684 65.2180196 166.89119412 67.22340012 166.91204643 C70.02937132 166.93890082 72.83361438 166.9341533 75.63964844 166.92163086 C76.46787613 166.93646515 77.29610382 166.95129944 78.14942932 166.96658325 C82.41597722 166.91235826 84.03398651 166.69862192 87.50527954 163.9723053 C90.29834448 160.28600719 90.63919023 157.6740206 90.65362549 153.1804657 C90.65933563 152.1164151 90.66504578 151.0523645 90.67092896 149.95606995 C90.67204681 148.78873825 90.67316467 147.62140656 90.67431641 146.41870117 C90.67928131 145.18919739 90.68424622 143.9596936 90.68936157 142.69293213 C90.70147155 139.3188317 90.70892876 135.94479326 90.71337223 132.57067847 C90.71630463 130.46183299 90.72040977 128.35299292 90.7248764 126.24415016 C90.73854926 119.64363178 90.74821679 113.0431258 90.75207829 106.44259423 C90.75655783 98.82782792 90.77410164 91.21324122 90.80307889 83.59852952 C90.8247092 77.70967291 90.8347833 71.82086679 90.83611941 65.93197089 C90.83716654 62.4161878 90.84305434 58.90057359 90.86093903 55.38483238 C90.8805106 51.46116745 90.87612533 47.53772623 90.86962891 43.61401367 C90.87884369 42.45275467 90.88805847 41.29149567 90.89755249 40.095047 C90.86241191 33.32765763 90.5293989 28.33848093 85.51318359 23.32226562 C82.61262686 23.11297615 79.80679129 23.02863157 76.90429688 23.03173828 C76.0131015 23.02502106 75.12190613 23.01830383 74.20370483 23.01138306 C71.24691243 22.99232869 68.29034613 22.98847504 65.33349609 22.98632812 C63.28327337 22.97990506 61.23305158 22.97317708 59.18283081 22.96615601 C54.88032913 22.9541644 50.57790785 22.95047708 46.27539062 22.95166016 C40.75805349 22.95186338 35.24123126 22.92456586 29.72401619 22.89011574 C25.48784002 22.86789351 21.25178864 22.86382119 17.01556015 22.86487961 C14.98135479 22.86251641 12.94714635 22.85365267 10.9129982 22.83821487 C8.06858392 22.81865071 5.22529115 22.82435533 2.38085938 22.83642578 C1.53811462 22.82518677 0.69536987 22.81394775 -0.1729126 22.80236816 C-3.85161245 22.84210051 -6.00911713 22.95698063 -8.97854614 25.22763062 Z " fill="#181818" transform="translate(127.48681640625,92.677734375)"/>
<path d="M0 0 C0.9326619 -0.00686325 1.86532379 -0.0137265 2.82624817 -0.02079773 C5.89425088 -0.03902502 8.96174017 -0.0352336 12.02978516 -0.02954102 C14.17298549 -0.03410511 16.31618435 -0.03941136 18.4593811 -0.04542542 C22.94645135 -0.05434881 27.43334354 -0.0519425 31.92041016 -0.04199219 C37.6557265 -0.03050997 43.39042646 -0.0507069 49.12566185 -0.07990932 C53.55076977 -0.09830297 57.97573089 -0.09797242 62.40086746 -0.0922718 C64.51466358 -0.09211894 66.62846988 -0.09813398 68.74222946 -0.11056328 C71.70484208 -0.1255292 74.66632761 -0.11475445 77.62890625 -0.09765625 C78.92440651 -0.1121582 78.92440651 -0.1121582 80.24607849 -0.12695312 C88.62260276 -0.02630187 95.92404214 3.15986134 102.44384766 8.40405273 C111.469553 18.38085391 113.58714319 27.43141229 113.64697266 40.63061523 C113.65267273 41.61468353 113.6583728 42.59875183 113.66424561 43.61264038 C113.67366846 45.69202611 113.68021876 47.77142659 113.68408203 49.85083008 C113.69375147 52.99774979 113.7247863 56.14400577 113.75634766 59.29077148 C113.90154929 86.4556213 113.90154929 86.4556213 104.44384766 96.40405273 C103.91791016 96.95834961 103.39197266 97.51264648 102.85009766 98.08374023 C95.70365593 104.85937602 87.18213162 107.01268681 77.56298828 106.92163086 C76.6314946 106.92864014 75.70000092 106.93564941 74.74028015 106.94287109 C71.6932399 106.96032554 68.64714562 106.94887305 65.60009766 106.93530273 C63.46358056 106.93800125 61.32706467 106.94188666 59.19055176 106.94689941 C54.72554769 106.95277749 50.26086498 106.94428599 45.79589844 106.92553711 C40.09324814 106.90274889 34.39135105 106.91588103 28.68872833 106.93982697 C24.28072508 106.95433062 19.8728983 106.94965801 15.46488953 106.9393158 C13.36309213 106.93666113 11.26127835 106.93987354 9.15950012 106.94923401 C6.21414181 106.95947502 3.2699772 106.94379335 0.32470703 106.92163086 C-0.95833061 106.93377625 -0.95833061 106.93377625 -2.26728821 106.94616699 C-11.88026063 106.81320338 -19.63023329 103.24910115 -26.57568359 96.69702148 C-31.62428061 90.85180166 -34.65399337 83.7852572 -34.7331543 76.08154297 C-34.74598953 74.99288437 -34.75882477 73.90422577 -34.77204895 72.78257751 C-34.77943588 71.60450027 -34.78682281 70.42642303 -34.79443359 69.21264648 C-34.80250534 67.99762955 -34.81057709 66.78261261 -34.81889343 65.53077698 C-34.83273669 62.95428901 -34.84345776 60.37778269 -34.85131836 57.80126953 C-34.86847793 53.8813946 -34.91235773 49.96237468 -34.95654297 46.04272461 C-34.96667473 43.53687142 -34.97518932 41.03101108 -34.98193359 38.52514648 C-34.99944168 37.36123886 -35.01694977 36.19733124 -35.0349884 34.99815369 C-35.01180674 26.1969828 -33.30096152 19.48205494 -28.36865234 12.15405273 C-20.08974462 4.05912074 -11.50211908 -0.05967221 0 0 Z M-10.55615234 27.40405273 C-11.75380018 29.7993484 -11.68922623 31.29975722 -11.70141602 33.97387695 C-11.70779587 34.92181122 -11.71417572 35.86974548 -11.7207489 36.84640503 C-11.72186172 37.87347565 -11.72297455 38.90054626 -11.72412109 39.95874023 C-11.72744949 41.0118338 -11.73077789 42.06492737 -11.73420715 43.14993286 C-11.73927677 45.38095665 -11.74161547 47.61198804 -11.74145508 49.84301758 C-11.74363889 53.25802109 -11.76178706 56.67270029 -11.78076172 60.08764648 C-11.78369614 62.25300996 -11.78568061 64.41837497 -11.78662109 66.58374023 C-11.79380661 67.60676239 -11.80099213 68.62978455 -11.80839539 69.68380737 C-11.80531876 70.63804596 -11.80224213 71.59228455 -11.79907227 72.57543945 C-11.80049728 73.41323944 -11.8019223 74.25103943 -11.8033905 75.11422729 C-11.52634407 77.68012562 -10.94918152 79.23758585 -9.55615234 81.40405273 C-5.67993795 83.98819566 -2.43879193 83.70685751 2.05859375 83.71044922 C3.37856606 83.72293449 3.37856606 83.72293449 4.72520447 83.735672 C7.63927614 83.75980175 10.55312412 83.76854767 13.46728516 83.77514648 C15.4912625 83.78411043 17.51523914 83.79323223 19.53921509 83.80250549 C23.78446057 83.81900605 28.02962708 83.82669757 32.27490234 83.82958984 C37.71486786 83.83497524 43.15409137 83.87265745 48.59384727 83.91833401 C52.77516389 83.94807547 56.95630118 83.95531277 61.13771439 83.95631599 C63.14319889 83.96052395 65.14868367 83.97298122 67.15406418 83.99383354 C69.96003538 84.02068793 72.76427844 84.01594041 75.5703125 84.00341797 C76.39854019 84.01825226 77.22676788 84.03308655 78.08009338 84.04837036 C82.34664128 83.99414537 83.96465057 83.78040902 87.4359436 81.05409241 C89.99906849 77.67127009 90.56774787 75.2469287 90.60498047 71.11962891 C90.61458801 70.25830856 90.62419556 69.39698822 90.63409424 68.50956726 C90.63834412 67.58142715 90.64259399 66.65328705 90.64697266 65.69702148 C90.65267273 64.73887039 90.6583728 63.7807193 90.66424561 62.79353333 C90.6736931 60.76519881 90.68022859 58.73684895 90.68408203 56.70849609 C90.69377763 53.61390204 90.72479942 50.51997501 90.75634766 47.42553711 C90.76287895 45.45353584 90.76812893 43.48152982 90.77197266 41.50952148 C90.79049286 40.12642036 90.79049286 40.12642036 90.80938721 38.71537781 C90.79163281 33.56389118 90.4799899 29.78125781 87.44384766 25.40405273 C83.67602273 22.68077405 79.35140153 23.10854332 74.89916992 23.11352539 C74.0385495 23.10680817 73.17792908 23.10009094 72.29122925 23.09317017 C69.44751202 23.07417882 66.6040306 23.07026557 63.76025391 23.06811523 C61.78254601 23.06168872 59.80483907 23.05496047 57.82713318 23.04794312 C53.68201493 23.03596795 49.53698004 23.0322626 45.3918457 23.03344727 C40.08092119 23.03365061 34.77053086 23.00633351 29.45973301 22.97190285 C25.37535649 22.94966518 21.29110925 22.94560874 17.20667839 22.94666672 C15.24865818 22.94430661 13.29063463 22.93546009 11.33267403 22.92000198 C8.5940418 22.90040292 5.8565709 22.90615568 3.11791992 22.91821289 C2.30996475 22.90697388 1.50200958 22.89573486 0.66957092 22.88415527 C-4.36961344 22.94052365 -7.03835444 23.75694806 -10.55615234 27.40405273 Z " fill="#171717" transform="translate(127.55615234375,300.595947265625)"/>
<path d="M0 0 C0.94270752 -0.00700928 1.88541504 -0.01401855 2.85668945 -0.02124023 C5.94643356 -0.03872271 9.03524797 -0.02723202 12.125 -0.01367188 C14.28776219 -0.01636958 16.45052319 -0.02025432 18.61328125 -0.02526855 C23.13553468 -0.03115042 27.65747106 -0.02264278 32.1796875 -0.00390625 C37.9598108 0.01888218 43.73919103 0.0057521 49.51928711 -0.01819611 C53.98215272 -0.03268942 58.44484381 -0.02803185 62.90771484 -0.01768494 C65.03824961 -0.01502743 67.1688005 -0.01825285 69.29931641 -0.02760315 C72.2833011 -0.03782691 75.26610282 -0.02218606 78.25 0 C79.11987549 -0.00809692 79.98975098 -0.01619385 80.88598633 -0.02453613 C90.22920114 0.10336551 98.38739539 4.09203099 105.125 10.51757812 C112.24517969 19.31123685 113.43976571 26.94792854 113.4609375 38.03710938 C113.4709227 39.85682503 113.4709227 39.85682503 113.48110962 41.71330261 C113.49121927 44.2760568 113.49592716 46.83883722 113.49560547 49.40161133 C113.49997301 53.30594666 113.53629779 57.20914614 113.57421875 61.11328125 C113.58008846 63.60872011 113.58405682 66.10416432 113.5859375 68.59960938 C113.60030853 69.75926712 113.61467957 70.91892487 113.62948608 72.11372375 C113.5752025 81.82768733 110.90296841 90.32568798 104.125 97.51757812 C95.90021951 104.33148009 87.27247449 106.9836953 76.70898438 106.90576172 C75.36807487 106.91364716 75.36807487 106.91364716 74.00007629 106.92169189 C71.07278479 106.93479403 68.14604612 106.92618867 65.21875 106.91601562 C63.16808977 106.91803917 61.11743024 106.92095294 59.06677246 106.92471313 C54.77995924 106.92912324 50.49333422 106.92274776 46.20654297 106.90869141 C40.72919481 106.89160044 35.25228775 106.90144867 29.77495575 106.9194088 C25.54372879 106.93028213 21.31260531 106.92678402 17.08137512 106.91902542 C15.0624842 106.91703322 13.04358369 106.919448 11.02470398 106.92646408 C8.19655696 106.93413714 5.36911084 106.92239279 2.54101562 106.90576172 C1.30633293 106.91487076 1.30633293 106.91487076 0.04670715 106.92416382 C-10.95694671 106.80511117 -19.94788776 102.44469036 -27.6875 94.70507812 C-33.92219827 85.62023207 -35.0291767 77.0896843 -35.078125 66.29101562 C-35.08382507 65.30694733 -35.08952515 64.32287903 -35.09539795 63.30899048 C-35.10482081 61.22960475 -35.11137111 59.15020427 -35.11523438 57.07080078 C-35.12490382 53.92388107 -35.15593865 50.77762509 -35.1875 47.63085938 C-35.26813925 32.5445739 -35.26249414 20.19772796 -24.24609375 8.83789062 C-17.13438077 2.20469198 -9.56906113 -0.08907017 0 0 Z M-9.36672974 25.86654663 C-11.32507066 29.30865087 -12.00098875 31.90622068 -12.03613281 35.80200195 C-12.04574036 36.6633223 -12.0553479 37.52464264 -12.06524658 38.4120636 C-12.06949646 39.3402037 -12.07374634 40.26834381 -12.078125 41.22460938 C-12.08382507 42.18276047 -12.08952515 43.14091156 -12.09539795 44.12809753 C-12.10484545 46.15643205 -12.11138094 48.1847819 -12.11523438 50.21313477 C-12.12492998 53.30772882 -12.15595177 56.40165585 -12.1875 59.49609375 C-12.1940313 61.46809502 -12.19928127 63.44010103 -12.203125 65.41210938 C-12.2154718 66.33417679 -12.2278186 67.2562442 -12.24053955 68.20625305 C-12.22278515 73.35773968 -11.91114224 77.14037305 -8.875 81.51757812 C-5.10717507 84.24085681 -0.78255388 83.81308754 3.66967773 83.80810547 C4.96060837 83.8181813 4.96060837 83.8181813 6.27761841 83.82846069 C9.12133564 83.84745204 11.96481706 83.85136529 14.80859375 83.85351562 C16.78630165 83.85994214 18.76400859 83.86667039 20.74171448 83.87368774 C24.88683273 83.88566291 29.03186762 83.88936826 33.17700195 83.88818359 C38.48792647 83.88798025 43.7983168 83.91529735 49.10911465 83.94972801 C53.19349116 83.97196568 57.27773841 83.97602212 61.36216927 83.97496414 C63.32018947 83.97732425 65.27821302 83.98617077 67.23617363 84.00162888 C69.97480586 84.02122794 72.71227676 84.01547518 75.45092773 84.00341797 C76.2588829 84.01465698 77.06683807 84.025896 77.89927673 84.03747559 C81.68524798 83.99512566 83.88296847 83.67234851 87.10462952 81.61221313 C89.99333491 78.61732506 90.25296151 77.0113781 90.28613281 72.96362305 C90.29574036 72.01891647 90.3053479 71.0742099 90.31524658 70.10087585 C90.31949646 69.07694229 90.32374634 68.05300873 90.328125 66.99804688 C90.33382507 65.94732498 90.33952515 64.89660309 90.34539795 63.81404114 C90.35485652 61.58721934 90.36138532 59.36038348 90.36523438 57.13354492 C90.37493071 53.72940561 90.4059427 50.32587228 90.4375 46.921875 C90.44403086 44.75976922 90.44928101 42.59765911 90.453125 40.43554688 C90.4716452 38.90875557 90.4716452 38.90875557 90.49053955 37.35112 C90.51448369 30.42533163 90.51448369 30.42533163 87.125 24.51757812 C83.82438065 22.86726845 80.14580161 23.34296684 76.51611328 23.32470703 C75.62491791 23.31652954 74.73372253 23.30835205 73.81552124 23.29992676 C70.85879189 23.27506135 67.90211052 23.25855538 64.9453125 23.24414062 C63.93714352 23.23881695 62.92897453 23.23349327 61.89025497 23.22800827 C56.55591339 23.20127395 51.22159525 23.18189841 45.88720703 23.16748047 C40.3698086 23.15081589 34.85300556 23.10602364 29.3358326 23.05510902 C25.09967336 23.02150391 20.86365674 23.00991053 16.62737656 23.00425339 C14.59314285 22.99752415 12.55891908 22.98225893 10.52481461 22.95836258 C7.68026976 22.92684739 4.83734836 22.92665343 1.99267578 22.93408203 C1.14993103 22.9176767 0.30718628 22.90127136 -0.56109619 22.8843689 C-5.47669522 22.93396283 -5.47669522 22.93396283 -9.36672974 25.86654663 Z " fill="#181818" transform="translate(293.875,92.482421875)"/>
<path d="M0 0 C0 0.66 0 1.32 0 2 C-0.99 2 -1.98 2 -3 2 C-3.2578125 2.57234375 -3.515625 3.1446875 -3.78125 3.734375 C-5.11365942 6.21128995 -6.65056118 8.1341166 -8.5 10.25 C-9.1084375 10.95640625 -9.716875 11.6628125 -10.34375 12.390625 C-12 14 -12 14 -14 14 C-14.66 16.31 -15.32 18.62 -16 21 C-17 18 -17 18 -16.36328125 16.1328125 C-13.24107556 10.16696223 -7.82304805 0 0 0 Z " fill="#848484" transform="translate(111,305)"/>
</svg>
