<?xml version="1.0" encoding="UTF-8"?>
<svg version="1.1" xmlns="http://www.w3.org/2000/svg" width="512" height="512">
<path d="M0 0 C1.01642578 -0.01611328 2.03285156 -0.03222656 3.08007812 -0.04882812 C15.22547322 -0.05656898 25.22129752 2.73541782 34.15869141 11.17358398 C39.73321574 17.12007017 42.82727343 23.24130477 45.875 30.75 C50.48601496 44.2071842 50.48601496 44.2071842 58.63671875 55.26953125 C59.47847656 55.61371094 60.32023437 55.95789063 61.1875 56.3125 C62.12207031 56.77011719 63.05664062 57.22773437 64.01953125 57.69921875 C65.00308594 58.12847656 65.98664063 58.55773437 67 59 C67.97582031 59.43699219 68.95164062 59.87398437 69.95703125 60.32421875 C79.66377415 63.29375436 87.05674847 59.2520559 95.875 55.375 C97.83650502 54.52490993 99.79968214 53.67902248 101.76509094 52.83799744 C103.54176405 52.07588739 105.31339821 51.3020616 107.0847168 50.52758789 C116.31554376 46.91268304 127.59628971 46.96469615 136.91015625 50.30078125 C150.17999284 56.19595737 162.66743618 68.93186529 168.1875 82.3125 C168.64125 83.405625 169.095 84.49875 169.5625 85.625 C171.90962047 99.47301075 168.55392479 110.62064116 163.07421875 123.203125 C162.71134766 124.04077393 162.34847656 124.87842285 161.97460938 125.74145508 C161.25918533 127.37355589 160.52816015 128.99893606 159.77929688 130.6159668 C156.84796468 137.2023214 156.03165313 142.41605039 158.4375 149.41796875 C159.00532256 150.78519128 159.58888 152.14597858 160.1875 153.5 C160.58775391 154.52770508 160.58775391 154.52770508 160.99609375 155.57617188 C165.26745674 165.43827442 175.79631564 167.97089268 185.125 171.6875 C186.25357422 172.1309375 187.38214844 172.574375 188.54492188 173.03125 C199.97073393 177.68399487 210.18555503 184.27949073 215.35620117 195.95043945 C218.01820633 203.54362542 218.80176873 210.29464438 218.6875 218.3125 C218.70296875 219.39789063 218.7184375 220.48328125 218.734375 221.6015625 C218.67494295 234.05257669 215.1893222 244.04782148 206.55517578 253.00610352 C200.94660385 258.26499676 194.87327945 261.03904161 187.8125 263.9375 C183.59625961 265.71115882 179.38817123 267.50228098 175.1875 269.3125 C174.23915283 269.70775879 173.29080566 270.10301758 172.3137207 270.51025391 C166.43601292 273.14473517 163.5296258 275.44171387 161.125 281.4375 C160.84462891 282.05753906 160.56425781 282.67757813 160.27539062 283.31640625 C157.29993367 289.98429773 155.8833022 295.32434693 158.19042969 302.37939453 C159.58439994 305.90823277 161.05311801 309.3939878 162.5625 312.875 C163.57354473 315.24992867 164.5814565 317.626194 165.5859375 320.00390625 C166.26148682 321.56927124 166.26148682 321.56927124 166.95068359 323.16625977 C171.32636303 334.29720742 171.7921568 345.32902181 167.49609375 356.58203125 C161.38515441 369.33291662 147.8660064 382.37374772 134.5625 387.125 C119.47741043 391.07421675 107.27358551 386.22526471 93.609375 380.35546875 C92.85825439 380.03586182 92.10713379 379.71625488 91.33325195 379.38696289 C89.90558416 378.77312098 88.48420949 378.14433434 87.07104492 377.49780273 C80.83023926 374.7730739 75.57089093 374.32124401 69.08203125 376.5625 C67.71480872 377.13032256 66.35402142 377.71388 65 378.3125 C64.31486328 378.57933594 63.62972656 378.84617187 62.92382812 379.12109375 C52.15257773 383.78621663 49.39384192 396.65952262 45.38085938 406.7578125 C40.23095241 419.35134386 33.21680923 429.18134621 20.36328125 434.5859375 C13.84412723 436.76289019 7.29952251 436.53209409 0.5 436.5625 C-1.2005957 436.5934375 -1.2005957 436.5934375 -2.93554688 436.625 C-15.18197588 436.68146768 -24.76222144 433.94841474 -33.78979492 425.45141602 C-39.3589106 419.5039732 -42.45330483 413.38115418 -45.5 405.875 C-47.25431486 401.6803395 -49.01981334 397.49091711 -50.8125 393.3125 C-51.21936035 392.35907715 -51.6262207 391.4056543 -52.04541016 390.42333984 C-54.47068154 385.11908656 -56.20931356 382.15669024 -61.8125 379.8125 C-62.823125 379.3690625 -63.83375 378.925625 -64.875 378.46875 C-65.844375 378.0871875 -66.81375 377.705625 -67.8125 377.3125 C-68.59625 376.9309375 -69.38 376.549375 -70.1875 376.15625 C-76.61305369 374.09089346 -81.94914836 375.37081012 -88.015625 377.90234375 C-88.66070007 378.16632462 -89.30577515 378.43030548 -89.97039795 378.70228577 C-92.00678214 379.53849805 -94.03462981 380.39337466 -96.0625 381.25 C-98.1061177 382.09901712 -100.1513118 382.94407629 -102.19744873 383.78700256 C-104.04494878 384.55031424 -105.88832054 385.32359545 -107.73144531 386.09741211 C-117.54486551 389.96756998 -128.30255151 389.36017159 -138.0859375 385.6171875 C-142.623741 383.44580302 -146.12881528 380.71738732 -149.8125 377.3125 C-150.33021973 376.84102539 -150.84793945 376.36955078 -151.38134766 375.88378906 C-158.39293773 369.43787708 -164.50389378 363.4521152 -167.8125 354.3125 C-168.4621875 352.70375 -168.4621875 352.70375 -169.125 351.0625 C-171.65994759 337.23551315 -168.17110384 325.98640041 -162.69921875 313.421875 C-162.15491211 312.16540161 -162.15491211 312.16540161 -161.59960938 310.88354492 C-160.88418533 309.25144411 -160.15316015 307.62606394 -159.40429688 306.0090332 C-156.47296468 299.4226786 -155.65665313 294.20894961 -158.0625 287.20703125 C-158.63032256 285.83980872 -159.21388 284.47902142 -159.8125 283.125 C-160.07933594 282.43986328 -160.34617188 281.75472656 -160.62109375 281.04882812 C-164.90411571 271.15980632 -175.60047072 268.53627565 -184.9375 264.75 C-197.8681948 259.49825971 -208.13597967 254.24597791 -214.8125 241.3125 C-217.88149425 233.68046686 -218.2726415 226.46716394 -218.1875 218.3125 C-218.20490234 216.64574219 -218.20490234 216.64574219 -218.22265625 214.9453125 C-218.17993576 202.84117452 -215.34125735 193.24892998 -206.95141602 184.33520508 C-201.0039732 178.7660894 -194.88115418 175.67169517 -187.375 172.625 C-183.18032994 170.87068114 -178.99265373 169.10113489 -174.8125 167.3125 C-173.86560303 166.91869141 -172.91870605 166.52488281 -171.94311523 166.11914062 C-166.06425302 163.48354689 -163.15508412 161.18442891 -160.75 155.1875 C-160.46962891 154.56746094 -160.18925781 153.94742188 -159.90039062 153.30859375 C-156.92493367 146.64070227 -155.5083022 141.30065307 -157.81542969 134.24560547 C-159.20939994 130.71676723 -160.67811801 127.2310122 -162.1875 123.75 C-163.19854473 121.37507133 -164.2064565 118.998806 -165.2109375 116.62109375 C-165.66130371 115.57751709 -166.11166992 114.53394043 -166.57568359 113.45874023 C-170.59379636 103.23737837 -171.63581103 92.16648989 -167.89453125 81.66015625 C-162.05452547 68.98924118 -149.58031758 56.06356914 -136.8125 50.3125 C-120.03646271 44.16128633 -105.28316846 51.35927028 -89.96289062 57.90429688 C-81.61414925 61.34618843 -75.59836444 62.80559763 -66.97265625 59.42382812 C-66.34230469 59.16021484 -65.71195313 58.89660156 -65.0625 58.625 C-64.09376953 58.25858398 -64.09376953 58.25858398 -63.10546875 57.88476562 C-57.44827307 55.59052302 -54.89625723 52.54291261 -52.26025391 47.11791992 C-51.77476074 45.93818604 -51.28926758 44.75845215 -50.7890625 43.54296875 C-50.23711458 42.22845876 -49.6850268 40.91400748 -49.1328125 39.59960938 C-48.2847849 37.55412181 -47.44045204 35.50719174 -46.59960938 33.45874023 C-41.17554228 20.30029644 -35.23277286 9.7538675 -22.09765625 3.171875 C-14.67389274 0.38003231 -7.86672355 -0.02466058 0 0 Z M-15.81689453 31.53222656 C-17.93171067 34.47858406 -19.25092484 37.25352025 -20.6171875 40.609375 C-21.11863281 41.8159375 -21.62007812 43.0225 -22.13671875 44.265625 C-22.91143531 46.15774938 -23.68289184 48.05116045 -24.45263672 49.9453125 C-30.52411743 64.81868998 -36.43568151 75.12199731 -51.5625 81.5 C-52.35527344 81.84095703 -53.14804688 82.18191406 -53.96484375 82.53320312 C-75.26961032 91.5173502 -89.18706808 86.73091095 -109.85424805 78.39868164 C-110.80984619 78.01574951 -111.76544434 77.63281738 -112.75 77.23828125 C-113.60464844 76.89192627 -114.45929688 76.54557129 -115.33984375 76.1887207 C-119.52551022 74.70547061 -121.92087548 74.03125615 -126.23046875 75.390625 C-130.1880287 77.28201913 -133.08038703 79.95178432 -136.125 83.0625 C-136.64900391 83.56265625 -137.17300781 84.0628125 -137.71289062 84.578125 C-141.28478308 88.16373791 -143.16894225 91.142036 -143.8125 96.3125 C-143.19595014 99.47753176 -142.03989843 102.33853176 -140.8125 105.3125 C-140.4604248 106.21758301 -140.10834961 107.12266602 -139.74560547 108.05517578 C-138.20625881 112.00614325 -136.62683169 115.94053047 -135.04101562 119.87304688 C-128.98324711 135.11354296 -128.22847336 146.96145614 -134.67431641 162.37304688 C-142.2640661 179.43912992 -151.07405223 186.77308227 -168.40234375 193.50390625 C-169.37743896 193.88683838 -170.35253418 194.26977051 -171.35717773 194.66430664 C-173.28769528 195.4143458 -175.22591162 196.14494034 -177.17211914 196.85327148 C-183.14467193 199.15344294 -187.48958536 201.68287163 -190.8125 207.3125 C-192.89739997 213.90483875 -193.14918256 222.98485167 -190.5625 229.4375 C-187.35380938 234.70892031 -184.11819901 236.88354127 -178.39453125 239.1171875 C-177.7778508 239.36365021 -177.16117035 239.61011292 -176.52580261 239.86404419 C-173.91044674 240.90893196 -171.28594352 241.9298956 -168.66186523 242.95263672 C-152.36169236 249.34012758 -142.83312801 256.08614554 -135.5 272.3125 C-135.16218506 273.05983398 -134.82437012 273.80716797 -134.47631836 274.57714844 C-128.54895015 288.31316042 -128.5709217 300.27525165 -133.8125 314.3125 C-135.69781134 318.92210365 -137.67695297 323.48960568 -139.72631836 328.02856445 C-143.52826293 336.13245059 -143.52826293 336.13245059 -142.734375 344.79296875 C-140.83388081 348.70923653 -138.15009888 351.60301259 -135.0625 354.625 C-134.56234375 355.14900391 -134.0621875 355.67300781 -133.546875 356.21289062 C-129.96252698 359.78352303 -126.96849165 361.60712004 -121.8125 362.3125 C-118.97703428 361.65725766 -116.66054151 360.95022357 -114 359.875 C-113.27586914 359.60147705 -112.55173828 359.3279541 -111.80566406 359.04614258 C-109.46572526 358.15625372 -107.13896542 357.23699271 -104.8125 356.3125 C-102.35541862 355.34995214 -99.89734309 354.39000093 -97.4387207 353.43139648 C-95.88646009 352.82296391 -94.33667817 352.20815865 -92.78979492 351.58618164 C-77.57825494 345.52955917 -65.10047771 349.48492921 -50.5 355.625 C-33.8417474 362.97376774 -28.50296415 376.23397918 -22.0625 392.52172852 C-18.35382774 402.41881249 -18.35382774 402.41881249 -10.8125 409.3125 C-4.69231798 411.81453834 5.19191043 411.48522735 11.3125 409.125 C16.4765753 405.86938731 18.73283246 401.56511964 20.9921875 396.015625 C21.49363281 394.8090625 21.99507812 393.6025 22.51171875 392.359375 C23.28643531 390.46725062 24.05789184 388.57383955 24.82763672 386.6796875 C30.89911743 371.80631002 36.81068151 361.50300269 51.9375 355.125 C52.73027344 354.78404297 53.52304687 354.44308594 54.33984375 354.09179688 C75.64461032 345.1076498 89.56206808 349.89408905 110.22924805 358.22631836 C111.18484619 358.60925049 112.14044434 358.99218262 113.125 359.38671875 C113.97964844 359.73307373 114.83429688 360.07942871 115.71484375 360.4362793 C119.90051022 361.91952939 122.29587548 362.59374385 126.60546875 361.234375 C130.5630287 359.34298087 133.45538703 356.67321568 136.5 353.5625 C137.02400391 353.06234375 137.54800781 352.5621875 138.08789062 352.046875 C141.65978308 348.46126209 143.54394225 345.482964 144.1875 340.3125 C143.55825459 337.14931614 142.42241174 334.28446397 141.1875 331.3125 C140.87167969 330.51086426 140.55585938 329.70922852 140.23046875 328.88330078 C138.90093889 325.52968089 137.52655309 322.19522806 136.1484375 318.86132812 C129.9920018 303.7404641 127.97484046 291.92245969 134.1875 276.3125 C140.80544928 260.9206123 147.38816267 251.92972192 163.1875 245.3125 C165.04832274 244.57579087 166.91178706 243.84573147 168.77734375 243.12109375 C170.23998657 242.54669556 170.23998657 242.54669556 171.73217773 241.96069336 C173.66269528 241.2106542 175.60091162 240.48005966 177.54711914 239.77172852 C183.5878997 237.44528093 187.7808194 234.94786521 191.1875 229.3125 C192.15309654 226.83032836 192.15309654 226.83032836 192.1875 224.3125 C192.25453125 223.29414063 192.3215625 222.27578125 192.390625 221.2265625 C192.49728838 213.74234894 192.49210202 208.23899774 187.50878906 202.31787109 C184.6238905 199.82559545 181.84078405 198.69145257 178.296875 197.2890625 C176.93358376 196.73700384 175.57030284 196.18491969 174.20703125 195.6328125 C172.07795739 194.785094 169.94734654 193.94138876 167.81591797 193.09960938 C151.83086721 186.75462525 143.10128318 180.19609876 135.9375 164.375 C135.59589844 163.62379883 135.25429688 162.87259766 134.90234375 162.09863281 C128.89950168 148.31720754 128.97542044 136.2816957 134.35522461 122.27148438 C135.64586007 119.16784275 136.96858571 116.08093319 138.3125 113 C139.21701262 110.92320828 140.11565966 108.84384993 141.0078125 106.76171875 C141.40242676 105.85768311 141.79704102 104.95364746 142.20361328 104.0222168 C143.82957686 99.54415978 144.53328501 96.42878421 143.109375 91.83203125 C141.20888081 87.91576347 138.52509888 85.02198741 135.4375 82 C134.93734375 81.47599609 134.4371875 80.95199219 133.921875 80.41210938 C130.33752698 76.84147697 127.34349165 75.01787996 122.1875 74.3125 C119.35203428 74.96774234 117.03554151 75.67477643 114.375 76.75 C113.28880371 77.16028442 113.28880371 77.16028442 112.18066406 77.57885742 C109.84072526 78.46874628 107.51396542 79.38800729 105.1875 80.3125 C102.73041862 81.27504786 100.27234309 82.23499907 97.8137207 83.19360352 C96.26146009 83.80203609 94.71167817 84.41684135 93.16479492 85.03881836 C77.95325494 91.09544083 65.47547771 87.14007079 50.875 81 C34.2167474 73.65123226 28.87796415 60.39102082 22.4375 44.10327148 C18.72882774 34.20618751 18.72882774 34.20618751 11.1875 27.3125 C3.05293658 23.98694702 -9.76142506 24.82621823 -15.81689453 31.53222656 Z " fill="#000000" transform="translate(255.8125,37.6875)"/>
<path d="M0 0 C20.5167155 15.88300833 34.83638304 36.99725559 39.3984375 62.78515625 C42.71836425 89.44536496 38.12248664 114.45343625 22.18359375 136.26171875 C7.14586046 155.51611374 -14.86402196 171.80450615 -39.74511719 175.00732422 C-69.07381525 177.65663922 -95.58653813 172.62743402 -118.6875 153.3828125 C-139.69143819 134.79852799 -151.03578133 111.05253192 -152.91015625 83.19921875 C-154.2040146 58.01654919 -145.83099421 34.0977844 -129.12890625 15.22265625 C-128.28714844 14.27003906 -127.44539063 13.31742188 -126.578125 12.3359375 C-94.09253727 -22.17097569 -38.54910189 -27.14651816 0 0 Z M-108.78125 32.265625 C-121.75210971 48.17903579 -127.74904718 66.67611252 -126.12890625 87.22265625 C-123.57323507 106.70906707 -113.68283016 122.54514955 -98.81640625 135.03515625 C-83.23099726 146.45887001 -64.70379666 151.37033386 -45.53125 148.7265625 C-26.41416463 144.97935972 -9.70558788 135.47361872 1.44433594 119.25927734 C12.31262554 102.75841774 16.17180135 85.24310846 12.74609375 65.72265625 C8.5099906 46.7291519 -1.93441933 30.55966047 -18.37890625 19.97265625 C-47.24895339 3.06161347 -86.13925163 5.65451137 -108.78125 32.265625 Z " fill="#000000" transform="translate(312.12890625,176.77734375)"/>
</svg>
