<?xml version="1.0" encoding="UTF-8"?>
<svg version="1.1" xmlns="http://www.w3.org/2000/svg" width="512" height="512">
<path d="M0 0 C0.85222147 -0.00445784 1.70444295 -0.00891569 2.58248931 -0.01350862 C3.51904945 -0.01332426 4.45560959 -0.01313989 5.42055035 -0.01294994 C6.91262533 -0.01846498 6.91262533 -0.01846498 8.43484324 -0.02409142 C11.78349292 -0.03514549 15.13211158 -0.038975 18.48077679 -0.04278088 C20.87539551 -0.04904414 23.27001326 -0.05569081 25.66462994 -0.0626936 C32.86109374 -0.08193164 40.05755499 -0.09252263 47.25403669 -0.10142139 C50.64282147 -0.10580492 54.03160468 -0.1111715 57.42038822 -0.11641026 C68.68473804 -0.13342071 79.94908688 -0.14791551 91.21344757 -0.155159 C94.13621618 -0.15706889 97.05898477 -0.15898922 99.98175335 -0.16094494 C101.07141281 -0.16167055 101.07141281 -0.16167055 102.18308558 -0.16241082 C113.95443477 -0.17071352 125.72568242 -0.19605525 137.49698726 -0.22852562 C149.58146587 -0.26158825 161.66589285 -0.27960697 173.75041693 -0.28280324 C180.5358381 -0.28496893 187.32111113 -0.29372618 194.10648823 -0.31926441 C200.48815732 -0.34248583 206.86955947 -0.34680213 213.2512598 -0.33650303 C215.595022 -0.33600614 217.93879707 -0.34237126 220.28251934 -0.35605907 C223.47948699 -0.37368719 226.67548721 -0.36671602 229.87245464 -0.35352612 C230.80232262 -0.36449536 231.7321906 -0.37546461 232.69023639 -0.38676625 C238.24581637 -0.33133677 241.43578437 0.41731639 245.83697796 4.13422108 C249.8045445 8.53071373 251.26948655 11.92551394 251.18072796 17.93890858 C250.55464024 21.93733242 248.60997382 25.22579984 245.83697796 28.13422108 C240.67253944 31.37693743 236.50873817 31.5553344 230.61154461 31.49498463 C229.69391338 31.49755268 228.77628216 31.50012074 227.83084393 31.50276661 C224.75149245 31.5077256 221.67263224 31.4911729 218.59332561 31.47479725 C216.3498381 31.47387813 214.10634971 31.47427891 211.86286259 31.47589302 C205.85472511 31.47657032 199.84676687 31.45918237 193.83867168 31.43806171 C188.20097571 31.42097735 182.56332333 31.42017238 176.92560101 31.41803455 C160.43770292 31.40229235 143.94983817 31.3604089 127.46197796 31.32172108 C90.62572796 31.25984608 53.78947796 31.19797108 15.83697796 31.13422108 C15.83697796 115.61422108 15.83697796 200.09422108 15.83697796 287.13422108 C99.98697796 287.13422108 184.13697796 287.13422108 270.83697796 287.13422108 C270.83697796 246.54422108 270.83697796 205.95422108 270.83697796 164.13422108 C274.25278843 158.44120363 276.76657016 155.49843687 283.14947796 153.69672108 C288.01219677 152.79861494 291.64558134 153.50432516 295.83697796 156.13422108 C299.43188754 159.41691766 301.71141783 162.73000962 301.97119904 167.70427132 C301.97760926 169.25916913 301.97760926 169.25916913 301.98414898 170.84547901 C301.99488194 172.63087337 301.99488194 172.63087337 302.00583172 174.45233631 C302.00852062 175.75992908 302.01120953 177.06752186 302.01397991 178.41473866 C302.02024576 179.80444477 302.02689267 181.19414921 302.03389263 182.58385181 C302.05491929 187.14880681 302.06529303 191.7137621 302.07525921 196.27875233 C302.07930715 197.85085728 302.08342408 199.42296205 302.08760929 200.99506664 C302.10665712 208.38046788 302.12088956 215.76585915 302.12922126 223.15128022 C302.13899556 231.67449364 302.16532162 240.19744749 302.20572215 248.72056943 C302.2358846 255.31005569 302.25069021 261.89946753 302.25400227 268.48902148 C302.25635244 272.42403666 302.26530837 276.35877439 302.29046345 280.29371548 C302.31375199 283.99642894 302.31797457 287.69868243 302.30770206 291.40145016 C302.30697105 293.40418022 302.32605634 295.40688696 302.34576702 297.40952015 C302.28235651 308.35617847 302.28235651 308.35617847 297.83697796 313.13422108 C293.57464468 316.98071697 290.58507842 318.25766531 284.89308739 318.26564884 C283.86669614 318.26948999 282.84030488 318.27333113 281.78281087 318.27728868 C280.65170331 318.27642219 279.52059575 318.27555571 278.35521221 318.27466297 C277.15631794 318.27763409 275.95742366 318.28060522 274.72219926 318.28366637 C271.38848249 318.29085442 268.05481723 318.29352629 264.7210964 318.29426384 C261.12794788 318.2961133 257.53481056 318.30366008 253.94166851 318.31039906 C246.08219136 318.32398721 238.22271931 318.33000781 230.36323237 318.33440971 C225.45697626 318.33717124 220.55072213 318.34140842 215.64446735 318.34591389 C202.06395847 318.35810703 188.48345117 318.36840636 174.90293694 318.37178898 C174.03357396 318.37200854 173.16421099 318.37222811 172.26850368 318.37245433 C170.96131721 318.37278175 170.96131721 318.37278175 169.62772292 318.37311578 C167.86178124 318.37355925 166.09583956 318.37400581 164.32989788 318.37445545 C163.4539275 318.37467688 162.57795713 318.37489831 161.6754422 318.37512645 C147.4791705 318.3790751 133.28295012 318.39653097 119.08669826 318.41981497 C104.51619237 318.44352018 89.94571223 318.45599045 75.37518674 318.4571569 C67.19251735 318.45807411 59.00991482 318.46383805 50.82726383 318.48197651 C43.85999397 318.49736628 36.89281163 318.50250462 29.92552801 318.49423841 C26.37035509 318.49032793 22.81535848 318.4912807 19.26020718 318.50529575 C15.40662658 318.52034843 11.55329499 318.51217992 7.69969463 318.50171375 C6.57527924 318.50977016 5.45086385 318.51782656 4.29237527 318.5261271 C-2.05924267 318.48565564 -6.94008437 318.1428066 -11.80755329 313.59906483 C-14.96490156 309.47022478 -16.28690786 307.45258565 -16.29724312 302.30055428 C-16.30392988 300.75965393 -16.30392988 300.75965393 -16.31075174 299.18762428 C-16.31056737 298.05039505 -16.31038301 296.91316582 -16.31019306 295.74147511 C-16.31386975 294.54005727 -16.31754644 293.33863943 -16.32133454 292.100815 C-16.33047354 288.75536997 -16.33507373 285.40997405 -16.33772385 282.06452119 C-16.34162253 278.46042737 -16.35120123 274.85634781 -16.35993671 271.25226307 C-16.3797145 262.54257192 -16.38976944 253.83287959 -16.3986645 245.1231716 C-16.40304565 241.02322837 -16.40841294 236.92328643 -16.41365337 232.82334423 C-16.4306677 219.19655628 -16.44516198 205.56976913 -16.45240211 191.94297218 C-16.45431206 188.40540344 -16.45623239 184.86783471 -16.45818806 181.330266 C-16.4586718 180.45100182 -16.45915554 179.57173764 -16.45965394 178.66582908 C-16.46795459 164.42165393 -16.49329116 150.17756275 -16.52576873 135.93342427 C-16.55882979 121.31435503 -16.57685005 106.69532847 -16.58004636 92.07622164 C-16.58221245 83.86609422 -16.59097538 75.65608921 -16.61650753 67.44599819 C-16.63820161 60.45383 -16.6462714 53.46181394 -16.63654075 46.46961591 C-16.63199211 42.90212145 -16.63391451 39.33494095 -16.65330219 35.76748943 C-16.67414518 31.89882398 -16.66396099 28.03059236 -16.65076923 24.16188526 C-16.66173848 23.03580964 -16.67270773 21.90973403 -16.68400937 20.7495349 C-16.63090348 14.31123494 -16.009011 10.36540625 -12.16302204 5.13422108 C-8.26422414 1.52070107 -5.29625531 0.01285618 0 0 Z " fill="#000000" transform="translate(95.1630220413208,96.86577892303467)"/>
<path d="M0 0 C4.55792409 3.93638899 6.91652604 7.77941869 7.375 13.75 C6.84799478 23.20415428 -1.20302187 29.56772984 -7.578125 35.7421875 C-10.41186825 38.53450176 -12.99435228 41.45728394 -15.57421875 44.48046875 C-17.38977378 46.53301931 -19.29759536 48.45246006 -21.25 50.375 C-24.40099708 53.48390361 -27.33171581 56.70569722 -30.21875 60.05859375 C-32.76341706 62.96049291 -35.37751301 65.79349528 -38 68.625 C-38.51296631 69.17913574 -39.02593262 69.73327148 -39.55444336 70.30419922 C-40.60110236 71.43453222 -41.64789657 72.56474004 -42.69482422 73.69482422 C-48.66582281 80.14575236 -54.61755333 86.60679231 -60.375 93.25 C-63.26851009 96.52931143 -66.24088359 99.73606712 -69.203125 102.953125 C-71.75555143 105.72994057 -74.27983288 108.52480717 -76.75 111.375 C-80.15744919 115.30667214 -83.68129673 119.12861244 -87.20532227 122.95532227 C-89.73740116 125.70973428 -92.24035268 128.48242499 -94.6875 131.3125 C-98.26802312 135.44255185 -101.98579762 139.4410407 -105.70019531 143.45019531 C-110.26596642 148.38145654 -114.76744662 153.36797968 -119.25 158.375 C-128.66554738 168.87630419 -138.17817561 179.28445572 -147.82885742 189.57006836 C-150.92847459 192.87494134 -154.00388882 196.19788502 -157.04296875 199.55859375 C-157.66389404 200.23946045 -158.28481934 200.92032715 -158.92456055 201.62182617 C-160.10893535 202.92151792 -161.28662283 204.22734742 -162.45629883 205.5402832 C-166.33577611 209.77606853 -169.91100914 212.69021491 -175.70703125 213.87890625 C-186.95815653 214.15878499 -193.50686046 206.39613846 -201.21875 199.16015625 C-203.92249347 196.64255248 -206.737229 194.30597008 -209.625 192 C-215.35522487 187.38928361 -220.68085078 182.39743362 -226.04296875 177.37109375 C-230.70191319 173.00509707 -235.52070803 168.84324167 -240.38671875 164.7109375 C-246.96806203 159.11191177 -253.43538226 153.42734421 -259.76074219 147.54003906 C-266.69352291 141.06640922 -266.69352291 141.06640922 -273.99609375 135.01953125 C-278.23605445 131.71500553 -279.91660036 129.03832041 -280.5859375 123.69140625 C-280.67020831 117.75031417 -280.47504176 113.94261271 -276.25 109.375 C-272.10592121 105.94133471 -267.52154559 105.15788527 -262.25 105.375 C-253.38242891 106.98276523 -246.99202398 114.86799506 -240.81396484 120.87158203 C-238.34343907 123.2464646 -235.75488152 125.47429533 -233.16015625 127.7109375 C-230.88795489 129.69040126 -228.66540128 131.7208317 -226.4375 133.75 C-223.03916448 136.82246773 -219.57409477 139.75942622 -216 142.625 C-210.93269385 146.71892531 -206.19965465 151.09572688 -201.4621582 155.55957031 C-197.0185709 159.72317425 -192.43495203 163.60197159 -187.65234375 167.375 C-185.0211684 169.56550696 -182.63763691 171.92352253 -180.25 174.375 C-176.99957109 172.97993574 -175.17628208 171.40716606 -172.9375 168.6875 C-170.63530014 165.96314836 -168.3007004 163.36838129 -165.75 160.875 C-160.96950904 156.16953917 -156.63287172 151.10383572 -152.4375 145.875 C-151.715625 145.05 -150.99375 144.225 -150.25 143.375 C-149.59 143.375 -148.93 143.375 -148.25 143.375 C-147.9821167 142.78493164 -147.7142334 142.19486328 -147.43823242 141.58691406 C-146.23826517 139.35315542 -144.98387987 137.81226575 -143.23828125 135.984375 C-142.64901855 135.36159668 -142.05975586 134.73881836 -141.45263672 134.09716797 C-140.8288916 133.44635254 -140.20514648 132.79553711 -139.5625 132.125 C-138.27904981 130.76907871 -136.99648604 129.41231778 -135.71484375 128.0546875 C-135.10624512 127.41112305 -134.49764648 126.76755859 -133.87060547 126.10449219 C-131.5384043 123.61559296 -129.30983519 121.04607745 -127.0859375 118.4609375 C-124.52508065 115.55136823 -121.88586456 112.71655922 -119.25 109.875 C-115.46111404 105.78935564 -111.72827887 101.67106439 -108.08203125 97.45703125 C-105.25135739 94.24008207 -102.34232984 91.0952932 -99.44165039 87.94165039 C-95.00763061 83.11896118 -90.62474091 78.25150331 -86.25 73.375 C-83.99797293 70.87187583 -81.74507877 68.36953386 -79.4921875 65.8671875 C-78.01707382 64.22760121 -76.54308348 62.58700345 -75.0703125 60.9453125 C-68.21193854 53.30591375 -61.27370655 45.74062044 -54.31640625 38.19140625 C-53.35665595 37.14854322 -52.39701854 36.10557627 -51.4375 35.0625 C-50.74756958 34.31395752 -50.74756958 34.31395752 -50.04370117 33.55029297 C-47.51776992 30.79849534 -45.07117982 28.00045842 -42.6875 25.125 C-41.4809375 23.76375 -41.4809375 23.76375 -40.25 22.375 C-39.59 22.375 -38.93 22.375 -38.25 22.375 C-37.91935547 21.55128906 -37.91935547 21.55128906 -37.58203125 20.7109375 C-35.83543585 17.64799307 -33.46127034 15.41510917 -30.9375 13 C-26.51237293 8.70987216 -26.51237293 8.70987216 -22.625 3.9375 C-16.16950304 -3.02764146 -8.4052089 -4.20260445 0 0 Z " fill="#000000" transform="translate(426.25,114.625)"/>
</svg>
