<?xml version="1.0" encoding="UTF-8"?>
<svg version="1.1" xmlns="http://www.w3.org/2000/svg" width="512" height="512">
<path d="M0 0 C1.40979547 -0.00572328 2.81958632 -0.01269496 4.22937012 -0.02079773 C8.01069726 -0.03853245 11.79178987 -0.03759801 15.57314587 -0.03185534 C18.75334421 -0.02873341 21.93349942 -0.03488918 25.11369157 -0.04089409 C32.62986838 -0.0548743 40.14593138 -0.05343376 47.66210938 -0.04199219 C55.36192066 -0.03052854 63.0613829 -0.04457196 70.76114821 -0.07138866 C77.42074046 -0.09369622 84.08022436 -0.10014916 90.73985124 -0.09431225 C94.69575003 -0.0909758 98.65142556 -0.0931322 102.60729218 -0.11056328 C136.17387869 -0.2441811 162.56860492 4.80664979 189.19628906 26.40405273 C189.9375 26.92354492 190.67871094 27.44303711 191.44238281 27.97827148 C192.31056641 28.6840332 192.31056641 28.6840332 193.19628906 29.40405273 C193.19628906 30.06405273 193.19628906 30.72405273 193.19628906 31.40405273 C193.75058594 31.61030273 194.30488281 31.81655273 194.87597656 32.02905273 C208.32936065 40.00142849 217.93646222 62.24629661 222.23535156 76.57592773 C227.64378587 98.12172296 229.70694455 120.9284957 217.95800781 140.84545898 C214.79049542 145.44572643 211.13616497 149.45741889 207.19628906 153.40405273 C206.55820312 154.05374023 205.92011719 154.70342773 205.26269531 155.37280273 C193.18772948 166.82017159 177.0788195 170.55475412 160.92703247 170.55122375 C160.01424683 170.55490044 159.1014612 170.55857713 158.16101539 170.56236523 C155.11303441 170.57334738 152.06508759 170.57723663 149.01708984 170.58105469 C146.82691847 170.5873236 144.63674815 170.59397078 142.44657898 170.60096741 C135.26159398 170.62196408 128.07660887 170.63236759 120.89160156 170.64233398 C118.41211817 170.64638357 115.93263488 170.65050055 113.4531517 170.65468407 C102.46678495 170.6726369 91.48042276 170.68701437 80.49404394 170.69486047 C78.48658918 170.69629881 76.47913443 170.6977502 74.47167969 170.69921875 C73.47497388 170.69994436 73.47497388 170.69994436 72.45813261 170.70068463 C61.71294197 170.70897112 50.96786314 170.73428717 40.22272123 170.76679943 C29.16298281 170.79998765 18.10330387 170.8175603 7.04351604 170.82107705 C0.84521121 170.82341944 -5.35291679 170.83227387 -11.55117416 170.85753822 C-17.39040473 170.88095492 -23.22934374 170.88499777 -29.06860924 170.87477684 C-31.19973538 170.87428462 -33.33087655 170.88051121 -35.46195793 170.89433289 C-57.50418988 171.02917589 -76.06264915 168.00304542 -92.80371094 152.40405273 C-105.74812354 138.74435173 -110.81334751 122.27450747 -110.86962891 103.81420898 C-110.23022331 80.43564579 -101.24899603 56.90870917 -85.80371094 39.40405273 C-85.11664063 38.58549805 -84.42957031 37.76694336 -83.72167969 36.92358398 C-62.56252323 12.33321296 -32.15474221 -0.11295932 0 0 Z M-39.17871094 29.21655273 C-40.16145996 29.73910645 -40.16145996 29.73910645 -41.1640625 30.2722168 C-43.05796021 31.29300815 -44.93172996 32.34374696 -46.80371094 33.40405273 C-47.80144531 33.94932617 -48.79917969 34.49459961 -49.82714844 35.05639648 C-68.12929772 45.78072178 -80.72775108 64.65738202 -86.79589844 84.67749023 C-90.51007371 99.28657966 -91.91586123 115.45263996 -84.33886719 129.06030273 C-77.45884764 139.56414937 -68.84816046 145.91135945 -56.61661339 148.80360985 C-48.21724508 150.12631375 -39.68701701 149.80967155 -31.20532227 149.77636719 C-29.03098883 149.77879847 -26.85665652 149.78252104 -24.68232727 149.78742981 C-18.80652759 149.79679466 -12.93089577 149.78745136 -7.05510926 149.77409768 C-0.89340344 149.76273989 5.26829464 149.76689392 11.43000793 149.7688446 C21.77196987 149.76972601 32.11386607 149.75867756 42.45581055 149.74023438 C54.4017319 149.71905236 66.34755711 149.71556139 78.29349345 149.72179633 C89.80409205 149.72749573 101.3146569 149.7218386 112.82525063 149.71062279 C117.71617573 149.70598616 122.60708012 149.70509887 127.49800682 149.70720863 C133.25761781 149.70909573 139.01713129 149.70095513 144.77672005 149.68514824 C146.88700838 149.68091545 148.99730662 149.68004805 151.10759735 149.68283844 C153.99409413 149.6860755 156.88030229 149.6769402 159.76676941 149.66474915 C161.01085368 149.67041813 161.01085368 149.67041813 162.28007096 149.67620164 C174.63343543 149.58428509 184.8597784 145.7514979 194.00878906 137.27905273 C203.30090282 127.45310121 205.60098101 116.98005968 205.41113281 103.99389648 C205.02448525 92.52175115 201.77426975 81.87191304 197.19628906 71.40405273 C196.81601562 70.51975586 196.43574219 69.63545898 196.04394531 68.72436523 C192.04934236 60.08956694 186.08312246 52.91862487 179.19628906 46.40405273 C178.49503906 45.64092773 177.79378906 44.87780273 177.07128906 44.09155273 C162.62917154 30.59131244 143.15074887 21.34007093 123.1603241 21.25688171 C121.9734198 21.24972641 120.7865155 21.24257111 119.56364441 21.23519897 C118.27476822 21.23251007 116.98589203 21.22982117 115.65795898 21.22705078 C114.27580599 21.22077841 112.89365466 21.21413093 111.51150513 21.20713806 C106.98326779 21.18617275 102.45503043 21.17573702 97.92675781 21.16577148 C96.36015621 21.16171996 94.79355477 21.15760292 93.22695351 21.1534214 C85.85809187 21.13437971 78.48924013 21.1201512 71.12035865 21.11180943 C62.65558437 21.10206562 54.19107357 21.07581699 45.72639197 21.03530854 C39.15875395 21.00497413 32.59119067 20.99032396 26.02348405 20.98702842 C22.1133119 20.984696 18.20342147 20.97597628 14.29332542 20.95056725 C-13.32601324 20.43212748 -13.32601324 20.43212748 -39.17871094 29.21655273 Z " fill="#000000" transform="translate(155.8037109375,261.595947265625)"/>
<path d="M0 0 C16.46089374 14.04017408 25.95199595 33.69316691 27.86474609 55.08691406 C29.44575581 76.90971275 22.8869022 97.99144596 8.8359375 114.77734375 C-5.54131097 131.27611001 -26.02425775 141.17578708 -47.7890625 142.83984375 C-48.68625 142.91074219 -49.5834375 142.98164063 -50.5078125 143.0546875 C-70.97338462 143.82522862 -91.93084486 136.24887432 -107.0390625 122.52734375 C-122.93499611 107.50304864 -132.98075824 87.92060698 -134.02734375 65.81640625 C-134.62113582 42.28064798 -127.22167453 22.35883398 -110.98828125 5.078125 C-110.26253906 4.33949219 -109.53679687 3.60085937 -108.7890625 2.83984375 C-108.17675781 2.21464844 -107.56445312 1.58945313 -106.93359375 0.9453125 C-76.82659397 -27.49264252 -31.08219919 -24.073468 0 0 Z M-100.92578125 25.3515625 C-111.29673288 39.32197674 -114.54247847 55.11537872 -112.359375 72.203125 C-109.10352091 88.66327624 -99.91746001 102.54641498 -86.3515625 112.33984375 C-71.69034596 121.1738254 -55.28383131 124.20028671 -38.6640625 120.21484375 C-31.76604249 118.42170275 -25.78235471 115.74039622 -19.7890625 111.83984375 C-19.08523437 111.40027344 -18.38140625 110.96070313 -17.65625 110.5078125 C-5.1004848 101.96496834 3.28799095 87.57703144 6.2109375 72.83984375 C9.05755037 56.10216242 5.1430297 40.16126393 -4.53515625 26.34765625 C-14.44424835 13.22857657 -28.38192752 4.22311306 -44.7890625 1.83984375 C-67.37598231 -0.04822695 -86.23622743 8.0839517 -100.92578125 25.3515625 Z " fill="#000000" transform="translate(266.7890625,99.16015625)"/>
<path d="M0 0 C0.90267105 -0.01283524 1.8053421 -0.02567047 2.73536682 -0.03889465 C3.71335739 -0.04628159 4.69134796 -0.05366852 5.69897461 -0.0612793 C6.7174498 -0.06935104 7.73592499 -0.07742279 8.78526306 -0.08573914 C10.9515513 -0.09958767 13.11786143 -0.11030637 15.28417969 -0.11816406 C17.46881643 -0.12958006 19.65342765 -0.14986267 21.83789062 -0.1796875 C49.00129595 -0.55031404 73.05012329 4.28198058 93.24194336 23.82543945 C108.65206723 41.02562822 116.11152069 60.90387575 116.03979492 83.91503906 C116.03882044 86.10980859 116.08065976 88.3010906 116.12475586 90.49536133 C116.23489531 103.46580467 113.58562271 114.90052555 104.75756836 124.9309082 C92.92700608 136.90726966 80.09827475 141.24701193 63.47631836 141.55200195 C62.31132812 141.60807617 62.31132812 141.60807617 61.12280273 141.6652832 C56.95076264 141.72887061 54.34438233 141.45888426 51.04272461 138.77856445 C48.14456777 135.76737497 47.63813846 135.03777616 47.16381836 130.92700195 C47.65809132 125.98427237 49.07710137 124.63871895 52.53881836 121.17700195 C55.20243795 119.84519216 57.67825414 120.01895946 60.60791016 119.93798828 C71.11134801 119.62046947 80.07538348 118.39441181 88.07006836 110.9465332 C95.76861527 101.67142217 95.21957161 88.97550441 94.23022461 77.6418457 C92.5883128 64.52108141 89.01435291 51.54724729 79.32006836 41.98950195 C77.53881836 40.17700195 77.53881836 40.17700195 77.53881836 38.17700195 C76.97163086 37.91532227 76.40444336 37.65364258 75.82006836 37.3840332 C73.35395666 36.07918985 71.26835059 34.54036701 69.03881836 32.86450195 C57.53115078 24.72947921 45.41633712 21.89911959 31.55444336 21.8684082 C29.46459652 21.84327326 27.37475283 21.81787492 25.28491211 21.79223633 C22.02401385 21.76340717 18.76316987 21.73935525 15.50219727 21.72070312 C12.3318484 21.69907306 9.16208857 21.6596686 5.99194336 21.6184082 C4.53090179 21.61823448 4.53090179 21.61823448 3.04034424 21.61805725 C-5.51015492 21.49293698 -5.51015492 21.49293698 -9.46118164 18.17700195 C-11.6160758 14.94466072 -12.47822839 13.01229275 -12.39868164 9.11450195 C-11.3124951 5.71111746 -9.94312863 3.73194739 -7.46118164 1.17700195 C-4.66234878 0.24405767 -2.8989328 0.03604331 0 0 Z " fill="#000000" transform="translate(350.461181640625,249.822998046875)"/>
<path d="M0 0 C3.66405129 2.73112002 6.84421621 5.70206379 10 9 C10.70511719 9.68578125 11.41023438 10.3715625 12.13671875 11.078125 C24.69750081 23.99778655 29.36831668 41.64550022 29.21875 59.23828125 C28.14674334 77.67296715 20.32660253 93.31675069 7 106 C6.34 106 5.68 106 5 106 C5 106.66 5 107.32 5 108 C-10.05399242 119.16114332 -27.30665589 124.34837236 -46 123 C-52.54010998 121.96548639 -58.48533411 120.81260851 -64 117 C-66.24624371 113.42643046 -66.34047601 110.09036437 -65.6640625 105.9375 C-64.42221849 102.31423748 -62.19737109 100.89473842 -59 99 C-54.80834624 98.43573892 -51.21067022 99.13353433 -47.125 100 C-35.64471494 102.40325244 -24.27291214 100.65796826 -14.15625 94.5 C-2.31422167 86.26206725 4.01363929 76.1264928 7 62 C8.49571918 50.12582119 4.95870556 37.72066602 -2 28 C-8.70758336 19.54385858 -19.03687329 12.34376142 -30 11 C-32.8560087 10.87041306 -35.70396758 10.86027794 -38.5625 10.875 C-39.69461914 10.86919922 -39.69461914 10.86919922 -40.84960938 10.86328125 C-44.41225576 10.86955904 -47.57125488 11.07728502 -51 12 C-54.06731313 12.38410003 -56.94211611 12.50147116 -60 12 C-62.75569447 9.81840855 -64.43588747 8.12822506 -66 5 C-66.42008973 1.30321041 -66.10222501 -0.77332716 -64.5625 -4.1875 C-61.14951838 -7.93345544 -57.83751105 -8.86608088 -53 -10 C-52.278125 -10.18433594 -51.55625 -10.36867188 -50.8125 -10.55859375 C-32.54599105 -13.42542085 -15.61057782 -9.66109187 0 0 Z " fill="#000000" transform="translate(367,111)"/>
</svg>
